<svg width="19" height="20" fill="none" xmlns="http://www.w3.org/2000/svg"><path d="M9.429.714C4.223.714 0 4.937 0 10.143c0 5.205 4.223 9.428 9.429 9.428 5.205 0 9.428-4.223 9.428-9.428 0-5.206-4.223-9.429-9.428-9.429zM11 16.024c0 .22-.172.405-.38.405H8.261a.409.409 0 01-.405-.406v-2.332c0-.221.184-.405.405-.405h2.357c.21 0 .381.184.381.405v2.332zm-.025-4.224c-.012.172-.196.307-.417.307H8.287c-.233 0-.418-.135-.418-.307l-.208-7.624c0-.086.037-.172.122-.22a.473.473 0 01.295-.099h2.701c.11 0 .221.037.295.098.086.05.122.135.122.221l-.22 7.624z" fill="#FF455B"/></svg>