<svg width="85" height="126" viewBox="0 0 85 126" fill="none" xmlns="http://www.w3.org/2000/svg">
<path d="M42.25 87.75H40C39.4034 87.75 38.8311 87.9873 38.4092 88.4092L17.5 109.318L-3.40918 88.4092C-3.83105 87.9873 -4.40344 87.75 -5 87.75L-7.47522 87.761C-34.8982 90.5043 -50 103.275 -50 123.75C-50 124.993 -48.9926 126 -47.75 126C-46.5074 126 -45.5 124.993 -45.5 123.75C-45.5 103.616 -29.282 95.8744 -13.577 93.1212L-16.0138 97.9948C-16.5697 99.1066 -16.1182 100.459 -15.0052 101.014L-7.25 104.891V112.5C-7.25 113.494 -6.59741 114.37 -5.646 114.656L15.25 120.924V123.75C15.25 124.993 16.2574 126 17.5 126C18.7426 126 19.75 124.993 19.75 123.75V120.924L40.646 114.656C41.5974 114.37 42.25 113.494 42.25 112.5V104.891L50.0052 101.025C51.1182 100.47 51.5697 99.1176 51.0138 98.0057L48.5858 93.1498C64.3896 95.926 80.5 103.687 80.5 123.75C80.5 124.993 81.5074 126 82.75 126C83.9926 126 85 124.993 85 123.75C85 103.275 69.8982 90.5043 42.25 87.75ZM-2.75 110.826V103.5C-2.74561 102.643 -3.22791 101.858 -3.99475 101.475L-10.981 97.9827L-8.16296 92.3577C-7.85974 92.3247 -7.55103 92.2797 -7.25 92.25H-5.93164L15.25 113.432V116.225L-2.75 110.826ZM45.981 98.0013L38.9948 101.493C38.2334 101.873 37.7522 102.65 37.75 103.5V110.826L19.75 116.225V113.432L40.9382 92.25H42.0248C42.4027 92.2885 42.7905 92.3423 43.1707 92.3851L45.981 98.0013Z" fill="#295994" fill-opacity="0.1"/>
<path d="M-24.384 69.2754C-16.0388 75.4222 -6.27521 79.3575 4.0003 80.7144V87.75C4.0003 88.9926 5.00775 90 6.25031 90C7.49286 90 8.50031 88.9926 8.50031 87.75V80.8583C11.3018 82.2711 14.367 83.0863 17.5003 83.25C20.6336 83.0863 23.6988 82.2711 26.5003 80.8583V87.75C26.5003 88.9926 27.5077 90 28.7503 90C29.9929 90 31.0003 88.9926 31.0003 87.75V80.7144C41.2769 79.3575 51.0416 75.4211 59.3868 69.2732C64.7162 65.1083 63.0903 49.1781 54.11 17.6309C53.9057 16.9069 53.7409 16.3323 53.6168 15.8895L57.841 5.33496C58.2574 4.29456 57.8465 3.10583 56.8753 2.54663C40.097 -7.03564 28.9997 -9 17.5003 -9C6.00092 -9 -5.09638 -7.03564 -21.8747 2.54663C-22.8492 3.10364 -23.2645 4.29236 -22.8492 5.33496L-18.626 15.8895C-18.7491 16.34 -18.9139 16.9069 -19.1182 17.6309C-28.0897 49.1781 -29.7156 65.1083 -24.384 69.2754ZM-7.2497 54V41.9788C5.16815 39.8771 17.1707 35.8022 28.2999 29.907C30.9058 32.8315 36.778 38.9718 42.2503 41.5525V54C42.2503 67.2935 25.65 78.75 17.5003 78.75C9.35065 78.75 -7.2497 67.2935 -7.2497 54ZM-16.2497 47.25C-16.2497 44.7649 -14.2348 42.75 -11.7497 42.75V51.75C-14.2348 51.75 -16.2497 49.7351 -16.2497 47.25ZM46.7503 42.75C49.2354 42.75 51.2503 44.7649 51.2503 47.25C51.2503 49.7351 49.2354 51.75 46.7503 51.75V42.75ZM17.5003 -4.5C27.8934 -4.5 37.9755 -2.76746 52.929 5.49426L45.6253 23.7327C36.6451 19.0734 22.5782 18 17.5003 18C12.4224 18 -1.64447 19.0734 -10.6247 23.7327L-17.9284 5.49426C-2.97492 -2.76746 7.10724 -4.5 17.5003 -4.5ZM-13.8404 27.835C-13.5877 28.4678 -13.0615 28.9523 -12.41 29.1522C-11.7585 29.3522 -11.051 29.2456 -10.4874 28.8633C-3.6363 24.2281 10.3163 22.5 17.5003 22.5C24.6843 22.5 38.6369 24.2281 45.488 28.8633C46.0516 29.2456 46.7591 29.3522 47.4106 29.1522C48.0621 28.9523 48.5883 28.4678 48.841 27.835L50.8658 22.7538C60.8348 58.8977 57.8135 64.7842 56.6094 65.729C50.178 70.4312 42.8348 73.7369 35.0499 75.4354C40.9001 70.63 45.767 63.9338 46.5855 56.25H46.7503C51.7205 56.25 55.7503 52.2202 55.7503 47.25C55.7503 42.2798 51.7205 38.25 46.7503 38.25C42.6085 38.25 34.5709 30.4651 30.4785 25.5575C29.7424 24.6753 28.4603 24.4896 27.5034 25.1257C27.3737 25.2136 14.0034 33.928 -12.121 38.2819C-17.0825 38.384 -21.0222 42.4896 -20.92 47.451C-20.8167 52.4136 -16.7111 56.3522 -11.7497 56.25H-11.5882C-10.7686 63.9338 -5.90827 70.63 -0.0514545 75.4354C-7.83637 73.7358 -15.1807 70.429 -21.6132 65.7268C-22.8195 64.7842 -25.8419 58.8977 -15.8718 22.7516L-13.8404 27.835Z" fill="#295994" fill-opacity="0.1"/>
<path d="M22.842 63.4978C19.6603 65.8214 15.3405 65.8214 12.1589 63.4978C11.5359 62.9595 10.6691 62.8035 9.89899 63.0924C9.12775 63.3813 8.57623 64.068 8.45978 64.8821C8.34442 65.6973 8.6828 66.5103 9.34198 67.0024C14.1584 70.684 20.8425 70.684 25.6589 67.0024C26.3181 66.5103 26.6564 65.6973 26.5411 64.8821C26.4246 64.068 25.8731 63.3813 25.1019 63.0924C24.3317 62.8035 23.4649 62.9595 22.842 63.4978Z" fill="#295994" fill-opacity="0.1"/>
<path d="M35.5 47.25C35.5 49.7351 33.4851 51.75 31 51.75C28.5149 51.75 26.5 49.7351 26.5 47.25C26.5 44.7649 28.5149 42.75 31 42.75C33.4851 42.75 35.5 44.7649 35.5 47.25Z" fill="#295994" fill-opacity="0.1"/>
<path d="M8.5 47.25C8.5 49.7351 6.48511 51.75 4 51.75C1.51489 51.75 -0.5 49.7351 -0.5 47.25C-0.5 44.7649 1.51489 42.75 4 42.75C6.48511 42.75 8.5 44.7649 8.5 47.25Z" fill="#295994" fill-opacity="0.1"/>
<path d="M13 9.00012H15.25V11.2501C15.25 12.4927 16.2574 13.5001 17.5 13.5001C18.7426 13.5001 19.75 12.4927 19.75 11.2501V9.00012H22C23.2426 9.00012 24.25 7.99268 24.25 6.75012C24.25 5.50757 23.2426 4.50012 22 4.50012H19.75V2.25012C19.75 1.00757 18.7426 0.00012207 17.5 0.00012207C16.2574 0.00012207 15.25 1.00757 15.25 2.25012V4.50012H13C11.7574 4.50012 10.75 5.50757 10.75 6.75012C10.75 7.99268 11.7574 9.00012 13 9.00012Z" fill="#295994" fill-opacity="0.1"/>
</svg>
