<svg width="85" height="123" viewBox="0 0 85 123" fill="none" xmlns="http://www.w3.org/2000/svg">
<path d="M73.7872 80.3469L56.3056 74.1772C56.5586 73.2509 56.5762 72.2652 56.3377 71.3048C55.9232 69.6356 54.7933 68.2568 53.2374 67.5229L43.8057 63.0741V59.9684C53.5781 58.304 62.4675 55.6548 68.3488 53.6651C70.1864 53.0439 71.7081 51.6776 72.5246 49.9164C73.3417 48.1541 73.4003 46.1947 72.6908 44.4006C71.6733 41.8278 70.4609 37.2714 70.4609 30.1752V10.7898C70.4609 -13.1747 50.9642 -32.6714 26.9997 -32.6714C3.03521 -32.6714 -16.4615 -13.1747 -16.4615 10.7898V30.1752C-16.4615 37.272 -17.6742 41.8278 -18.6914 44.4006C-19.4012 46.1953 -19.3423 48.1541 -18.5252 49.9167C-17.709 51.6776 -16.187 53.0442 -14.3497 53.6651C-8.46805 55.6548 0.42103 58.304 10.1937 59.9684V63.0741L0.76231 67.5229C-0.793568 68.2568 -1.92382 69.6353 -2.33796 71.3048C-2.57646 72.2652 -2.55893 73.2509 -2.30591 74.1772L-19.7872 80.3469C-26.4941 82.7141 -31 89.0827 -31 96.1952V119.833C-31 121.085 -29.9849 122.1 -28.7328 122.1C-27.4808 122.1 -26.4657 121.085 -26.4657 119.833V96.1952C-26.4657 91.0019 -23.1753 86.3512 -18.2782 84.6227L0.150177 78.1187L2.41552 81.1394L-0.0369396 84.8177C-1.39905 86.8612 -1.60581 89.5152 -0.576824 91.7443L4.63008 103.027H-2.23458V100.447C-2.23458 99.1951 -3.24966 98.1803 -4.50174 98.1803C-5.75381 98.1803 -6.7689 99.1951 -6.7689 100.447V103.027H-16.6177C-17.8698 103.027 -18.8849 104.041 -18.8849 105.294V119.833C-18.8849 121.085 -17.8698 122.1 -16.6177 122.1H7.61427C8.86635 122.1 9.88144 121.085 9.88144 119.833V114.404L12.8254 120.783C13.2081 121.612 14.0282 122.101 14.8852 122.101C15.2032 122.101 15.5264 122.033 15.8338 121.892C16.9707 121.367 17.4667 120.02 16.9423 118.883L3.53973 89.8441C3.16671 89.0358 3.24168 88.0739 3.73531 87.3327L7.07741 82.3199C7.61065 81.52 7.58132 80.4711 7.00486 79.7021L2.26105 73.377C1.97207 72.9919 2.01258 72.598 2.06245 72.3973C2.11233 72.1969 2.26075 71.8296 2.69635 71.624L10.9612 67.7257L15.8942 86.4966C16.2126 87.7079 17.4531 88.4321 18.6632 88.1132C19.8742 87.7949 20.5978 86.5552 20.2798 85.3443L20.09 84.6224C22.3049 85.3666 24.6397 85.753 26.9997 85.753C29.3572 85.753 31.6933 85.3672 33.9091 84.623L26.9997 110.914L22.8218 95.0169C22.5035 93.8062 21.2641 93.0816 20.0528 93.4003C18.8419 93.7186 18.1182 94.9582 18.4362 96.1692L24.8069 120.409C25.0687 121.406 25.9695 122.1 26.9997 122.1C28.0299 122.1 28.9304 121.406 29.1922 120.409L43.0382 67.7257L51.3031 71.624C51.7384 71.8296 51.8871 72.1969 51.937 72.3973C51.9868 72.598 52.027 72.9919 51.738 73.377L46.9945 79.7021C46.4178 80.4711 46.3888 81.5203 46.922 82.3199L50.2638 87.3327C50.7577 88.0736 50.8327 89.0358 50.4597 89.8444L37.0571 118.883C36.5324 120.02 37.0287 121.367 38.1656 121.892C38.4733 122.034 38.7962 122.101 39.1142 122.101C39.9712 122.101 40.7913 121.612 41.174 120.783L54.5765 91.7443C55.6055 89.5149 55.3988 86.8609 54.0366 84.8174L51.5845 81.1392L53.8498 78.1187L72.2782 84.6227C77.1756 86.3512 80.4657 91.0019 80.4657 96.1952V119.833C80.4657 121.085 81.4808 122.1 82.7328 122.1C83.9849 122.1 85 121.085 85 119.833V96.1952C85 89.0827 80.4938 82.7141 73.7872 80.3469ZM5.34711 117.566H-14.3506V107.561H-6.7689V107.717C-6.7689 108.969 -5.75381 109.984 -4.50174 109.984C-3.24966 109.984 -2.23458 108.969 -2.23458 107.717V107.561H5.34711V117.566ZM68.4108 48.0096C68.11 48.6583 67.5725 49.1411 66.8963 49.3699C62.0482 51.0101 55.104 53.1095 47.3325 54.6944C55.4882 48.5241 60.768 38.7436 60.768 27.7518V16.6481C62.4741 16.9957 64.1947 17.3101 65.9262 17.5861V30.1752C65.9262 36.4453 66.7832 41.7924 68.4742 46.068C68.7227 46.6961 68.7 47.3854 68.4108 48.0096ZM39.2717 64.2183L35.3791 79.0298C32.8345 80.4608 29.9392 81.218 26.9997 81.218C24.0569 81.218 21.1658 80.4602 18.62 79.028L14.7277 64.2183V59.2118C18.5332 60.7015 22.6725 61.5207 26.9997 61.5207C31.327 61.5207 35.4659 60.7015 39.2717 59.2118V64.2183ZM26.9997 56.9863C10.8799 56.9863 -2.23427 43.8719 -2.23427 27.7521V18.0595C-2.23427 16.8071 -3.24935 15.7923 -4.50143 15.7923C-5.75351 15.7923 -6.76859 16.8071 -6.76859 18.0595V27.7521C-6.76859 38.7439 -1.48883 48.5244 6.6669 54.6947C-1.10462 53.1095 -8.04878 51.0101 -12.8972 49.3702C-13.5731 49.1417 -14.1109 48.6586 -14.4113 48.0099C-14.7009 47.3857 -14.7233 46.6958 -14.4748 46.068C-12.7844 41.793 -11.9271 36.4462 -11.9271 30.1755V13.1186C-11.5771 13.0597 -11.2443 12.9977 -11.1481 12.9702C-10.5856 12.8094 2.76346 8.92435 14.4566 -0.56477C16.1669 -1.95318 18.6296 -1.97766 20.4449 -0.624622C24.9112 2.70448 32.4766 7.52355 43.1552 11.5778C44.3259 12.0231 45.6352 11.4333 46.0795 10.2629C46.5239 9.09243 45.9353 7.78321 44.7646 7.33855C34.5753 3.47017 27.389 -1.10435 23.1543 -4.26054C19.6731 -6.85448 14.9218 -6.78284 11.599 -4.08552C1.92189 3.76793 -9.29088 7.62724 -11.8543 8.44371C-10.637 -11.9326 6.3235 -28.1371 26.9997 -28.1371C48.464 -28.1371 65.9265 -10.6745 65.9265 10.7898V12.9892C61.9536 12.3314 58.0401 11.4778 54.2625 10.437C53.0563 10.1039 51.8073 10.8134 51.4744 12.0204C51.1419 13.2274 51.8508 14.4759 53.0578 14.8084C54.1068 15.0974 55.1669 15.37 56.2337 15.6315V27.7518C56.2337 43.8719 43.1195 56.9863 26.9997 56.9863Z" fill="#295994" fill-opacity="0.1"/>
<path d="M14.884 13.3693H10.0377C8.78559 13.3693 7.77051 14.384 7.77051 15.6364C7.77051 16.8888 8.78559 17.9036 10.0377 17.9036H14.884C16.136 17.9036 17.1511 16.8888 17.1511 15.6364C17.1511 14.384 16.136 13.3693 14.884 13.3693Z" fill="#295994" fill-opacity="0.1"/>
<path d="M43.9621 13.3693H39.1158C37.8637 13.3693 36.8486 14.384 36.8486 15.6364C36.8486 16.8888 37.8634 17.9036 39.1158 17.9036H43.9621C45.2142 17.9036 46.2292 16.8888 46.2292 15.6364C46.2292 14.384 45.2142 13.3693 43.9621 13.3693Z" fill="#295994" fill-opacity="0.1"/>
<path d="M70.6169 104.238H66.8259V100.448C66.8259 99.1952 65.8108 98.1804 64.5587 98.1804C63.3066 98.1804 62.2915 99.1952 62.2915 100.448V104.238H58.5006C57.2485 104.238 56.2334 105.253 56.2334 106.505C56.2334 107.758 57.2485 108.773 58.5006 108.773H62.2915V112.563C62.2915 113.816 63.3066 114.83 64.5587 114.83C65.8108 114.83 66.8259 113.816 66.8259 112.563V108.773H70.6169C71.8689 108.773 72.884 107.758 72.884 106.505C72.884 105.253 71.8689 104.238 70.6169 104.238Z" fill="#295994" fill-opacity="0.1"/>
<path d="M12.4605 20.6382C11.2084 20.6382 10.1934 21.653 10.1934 22.9053V25.3288C10.1934 26.5812 11.2084 27.5959 12.4605 27.5959C13.7126 27.5959 14.7277 26.5812 14.7277 25.3288V22.9053C14.7277 21.653 13.7126 20.6382 12.4605 20.6382Z" fill="#295994" fill-opacity="0.1"/>
<path d="M41.5396 20.6382C40.2875 20.6382 39.2725 21.653 39.2725 22.9053V25.3288C39.2725 26.5812 40.2875 27.5959 41.5396 27.5959C42.7917 27.5959 43.8068 26.5812 43.8068 25.3288V22.9053C43.8068 21.6533 42.7917 20.6382 41.5396 20.6382Z" fill="#295994" fill-opacity="0.1"/>
<path d="M37.9042 33.9578H16.0953C14.8432 33.9578 13.8281 34.9725 13.8281 36.2249C13.8281 42.8196 19.7369 48.1847 26.9997 48.1847C34.2625 48.1847 40.1713 42.8196 40.1713 36.2249C40.1713 34.9725 39.1562 33.9578 37.9042 33.9578ZM26.9997 43.6503C23.1564 43.6503 19.8911 41.4811 18.7742 38.4921H35.2253C34.1083 41.4814 30.843 43.6503 26.9997 43.6503Z" fill="#295994" fill-opacity="0.1"/>
</svg>
